# xmcd
#
# Track frame offsets:
#	150
#	20440
#	38040
#	57135
#	73692
#	90242
#	105197
#
# Disc length: 1598 seconds
#
# Revision: 0
# Processed by: cddbd v1.5.2PL0 Copyright (c) Steve Scherf et al.
# Submitted via: dBpowerAMP V4.0
#
DISCID=47063c07
DTITLE=Various Artist - CDX Volume 24B
DYEAR=1900
DGENRE=
TTITLE0=Wynonna Judd - She Is His Only Need
TTITLE1=Tanya Tucker - Some Kind Of Trouble
TTITLE2=Exile - Somebody's Telling Her Lies
TTITLE3=Buzzin' Cousins - Sweet Suzanne
TTITLE4=Dawn Sears - Tell Me I'm Crazy
TTITLE5=Ronna Reeves - The More I Learn (The Less I Understand About Love)
TTITLE6=Dixiana - Waitin' For The Deal To Go Down
EXTD=
EXTT0=
EXTT1=
EXTT2=
EXTT3=
EXTT4=
EXTT5=
EXTT6=
PLAYORDER=
